# File exported by Houdini 18.5.696 (www.sidefx.com)
# 27 points
# 150 vertices
# 50 primitives
# Bounds: [-0.120326236, -0.0500812568, -0.0402478538] to [0.122826785, 0.0511862449, 0.0404080823]
g 
v -0.120326236 -0.0305225495 -0.0104042618
v -0.0603659377 -0.0403995104 -0.000694216695
v -0.0653445944 -0.00549298944 -0.00388743379
v -0.0309645478 -0.0288402643 -0.0308805741
v -0.0100018671 -0.0399653874 -0.0399647877
v -0.120260485 -0.0302992631 0.000318497681
v -0.0653445944 -0.00803848635 0.00540128257
v -0.0309020914 -0.0310722236 0.0316496044
v -0.034341298 -0.0280962046 0.00473685842
v -0.0107770627 -0.0404223911 0.0404080823
v -0.0554244965 0.00572961802 -0.00872424245
v -0.0249725915 0.0316638239 -0.00145056786
v -0.119992763 0.000113192509 0.000186407691
v -0.0547777787 0.0164068565 0.00477937516
v -0.034576606 0.0155720133 0.0127789453
v 0.050994195 -0.0403313674 -0.0402478538
v 0.119884238 -0.00996593293 -0.010005652
v 0.0403818004 -0.0401337445 0.04006771
v 0.090658024 -0.0500812568 0.000519477471
v 0.120595768 -0.0406553671 0.000809947553
v 0.122826785 -0.0249725915 0.00299964356
v 0.0103584314 0.0198627096 -0.0199238919
v 0.044950664 0.0511862449 -0.00151003781
v 0.0582841933 0.00123240193 -0.0306667835
v 0.0918075144 0.0210288204 -0.0210519247
v 0.0249725915 0.0204831325 0.0203007422
v 0.100079484 0.0201825015 0.0101904022
vt 0.242817417 0.519919693 0
vt 0.0275100935 0.518845081 0
vt 0.237862006 0.478515625 0
vt 0.945918739 0.945547521 0
vt 0.764941871 0.83203125 0
vt 0.999756753 0.839261591 0
vt 0.722578347 0.861729681 0
vt 0.58681047 0.964009285 0
vt 0.602706313 0.82578969 0
vt 0.997182429 0.610874593 0
vt 0.852539063 0.647491932 0
vt 0.880372405 0.5390625 0
vt 0.959089518 0.51653558 0
vt 0.857530415 0.386895359 0
vt 0.995494127 0.471064687 0
vt 0.504601061 0.997700632 0
vt 0.706254601 0.583899021 0
vt 0.773998797 0.34765625 0
vt 0.14921926 0.463493556 0
vt 0.0244140625 0.481197238 0
vt 0.0332204252 0.440429688 0
vt 0.732037425 0.232138872 0
vt 0.944687128 0.201343998 0
vt 0.945224464 0.319615781 0
vt 0.0234375 0.48295325 0
vt 0.782655358 0.264648438 0
vt 0.79163748 0.301009297 0
vt 0.65625 0.285161972 0
vt 0.869964361 0.652679026 0
vt 0.770218194 0.731816769 0
vt 0.728515625 0.627929688 0
vt 0.59142524 0.72088474 0
vt 0.723299921 0.82561487 0
vt 0.612778604 0.1398132 0
vt 0.59771663 0.321141452 0
vt 0.519299924 0.357168823 0
vt 0.690429688 0.890250683 0
vt 0.996654093 0.538430929 0
vt 0.936582386 0.56797874 0
vt 0.905273438 0.532226563 0
vt 0.691350341 0.136901289 0
vt 0.814857543 0.04380906 0
vt 0.93282181 0.013671875 0
vt 0.931129575 0.0662178472 0
vt 0.853067875 0.0985532701 0
vt 0.537008941 0.357795209 0
vt 0.516570687 0.520618558 0
vt 0.267424047 0.994062841 0
vt 0.116376542 0.832476556 0
vt 0 0.829021573 0
vt 0.2751818 0.488797039 0
vt 0.390111595 0.603865266 0
vt 0.266601563 0.369728148 0
vt 0.133356631 0.359639436 0
vt 0.0610211939 0.386678338 0
vt 0.0068359375 0.357421875 0
vt 0.513858736 0.685267985 0
vt 0.3203592 0.35519892 0
vt 0.381286293 0.119728513 0
vt 0.314924687 0.682617188 0
vt 0 0.294874877 0
vt 0.0892071649 0.119653493 0
vt 0.00841614325 0.355898678 0
vt 0.604855895 0.0453536063 0
vt 0.325195313 0.00670951605 0
vt 0.753644884 0 0
vt 0.391229779 0.606445313 0
vt 0.253474832 0.671619117 0
vt 0 0.616030633 0
vt 0.577828348 0.712121904 0
vt 0.54296875 0.0478365012 0
vt 0.304104596 0 0
vt 0.18882893 0.47784555 0
vt 0.0068359375 0.401314318 0
vt 0.221354783 0.356445313 0
vt 0.872110426 0.0263624247 0
vt 0.719726563 0.0352251828 0
vt 0.757778823 0 0
vt 0.954267144 0.428006202 0
vt 0.793945313 0.35110265 0
vt 0.992086828 0.3125 0
vn -0.0747147128 -0.00367340585 -0.997198164
vn -0.225388661 -0.198108062 -0.953914642
vn 0.00158674526 -0.57768327 0.816259503
vn -0.507989526 0.854139447 0.111320861
vn -0.225388661 -0.198108062 -0.953914642
vn -0.0747147128 -0.00367340585 -0.997198164
vn -0.225388661 -0.198108062 -0.953914642
vn -0.482108802 0.00745312776 -0.876079619
vn -0.46457094 -0.884838879 -0.0351265706
vn -0.225388661 -0.198108062 -0.953914642
vn -0.46457094 -0.884838879 -0.0351265706
vn -0.532803535 -0.816147745 -0.223658532
vn -0.297002703 0.498416692 -0.814475358
vn -0.482108802 0.00745312776 -0.876079619
vn -0.225388661 -0.198108062 -0.953914642
vn -0.46457094 -0.884838879 -0.0351265706
vn -0.482108802 0.00745312776 -0.876079619
vn -0.191889152 -0.874666214 -0.445126414
vn -0.297002703 0.498416692 -0.814475358
vn -0.115086801 0.432340831 -0.894335747
vn -0.482108802 0.00745312776 -0.876079619
vn -0.482108802 0.00745312776 -0.876079619
vn -0.115086801 0.432340831 -0.894335747
vn -0.191889152 -0.874666214 -0.445126414
vn -0.507989526 0.854139447 0.111320861
vn -0.0747147128 -0.00367340585 -0.997198164
vn 0.00158674526 -0.57768327 0.816259503
vn -0.321690977 -0.133325011 0.93741101
vn -0.507989526 0.854139447 0.111320861
vn 0.00158674526 -0.57768327 0.816259503
vn -0.225388661 -0.198108062 -0.953914642
vn -0.321690977 -0.133325011 0.93741101
vn 0.00158674526 -0.57768327 0.816259503
vn -0.321690977 -0.133325011 0.93741101
vn -0.225388661 -0.198108062 -0.953914642
vn -0.532803535 -0.816147745 -0.223658532
vn -0.321690977 -0.133325011 0.93741101
vn -0.532803535 -0.816147745 -0.223658532
vn -0.46457094 -0.884838879 -0.0351265706
vn -0.594965875 -0.148673117 0.789880931
vn -0.321690977 -0.133325011 0.93741101
vn -0.46457094 -0.884838879 -0.0351265706
vn -0.175372645 0.442835301 0.879284561
vn -0.321690977 -0.133325011 0.93741101
vn -0.594965875 -0.148673117 0.789880931
vn -0.186713398 -0.91559875 0.356113762
vn -0.175372645 0.442835301 0.879284561
vn -0.594965875 -0.148673117 0.789880931
vn -0.48437956 0.82070446 0.303019047
vn -0.225388661 -0.198108062 -0.953914642
vn -0.507989526 0.854139447 0.111320861
vn -0.48437956 0.82070446 0.303019047
vn -0.297002703 0.498416692 -0.814475358
vn -0.225388661 -0.198108062 -0.953914642
vn -0.48437956 0.82070446 0.303019047
vn -0.507989526 0.854139447 0.111320861
vn -0.321690977 -0.133325011 0.93741101
vn -0.321690977 -0.133325011 0.93741101
vn -0.175372645 0.442835301 0.879284561
vn -0.48437956 0.82070446 0.303019047
vn -0.333380878 0.936860025 -0.105596349
vn -0.297002703 0.498416692 -0.814475358
vn -0.48437956 0.82070446 0.303019047
vn -0.333380878 0.936860025 -0.105596349
vn -0.48437956 0.82070446 0.303019047
vn -0.175372645 0.442835301 0.879284561
vn -0.115086801 0.432340831 -0.894335747
vn 0.189131513 -0.181839496 -0.964968324
vn -0.191889152 -0.874666214 -0.445126414
vn -0.115086801 0.432340831 -0.894335747
vn 0.143994242 0.206957147 -0.967695415
vn 0.189131513 -0.181839496 -0.964968324
vn 0.189131513 -0.181839496 -0.964968324
vn -0.00268938509 -0.999996424 -0.000310596981
vn -0.191889152 -0.874666214 -0.445126414
vn 0.631116271 -0.752729237 -0.187325627
vn -0.00268938509 -0.999996424 -0.000310596981
vn 0.189131513 -0.181839496 -0.964968324
vn 0.143994242 0.206957147 -0.967695415
vn 0.464727789 -0.0107421689 -0.885388494
vn 0.189131513 -0.181839496 -0.964968324
vn 0.365671188 0.600113451 -0.711441159
vn 0.464727789 -0.0107421689 -0.885388494
vn 0.143994242 0.206957147 -0.967695415
vn 0.189131513 -0.181839496 -0.964968324
vn 0.464727789 -0.0107421689 -0.885388494
vn 0.631116271 -0.752729237 -0.187325627
vn 0.464727789 -0.0107421689 -0.885388494
vn 0.626790404 0.156006575 0.763410509
vn 0.631116271 -0.752729237 -0.187325627
vn -0.186713398 -0.91559875 0.356113762
vn -0.594965875 -0.148673117 0.789880931
vn -0.46457094 -0.884838879 -0.0351265706
vn -0.191889152 -0.874666214 -0.445126414
vn -0.186713398 -0.91559875 0.356113762
vn -0.46457094 -0.884838879 -0.0351265706
vn 0.159015685 0.0503713116 0.985990286
vn -0.175372645 0.442835301 0.879284561
vn -0.186713398 -0.91559875 0.356113762
vn -0.175372645 0.442835301 0.879284561
vn 0.159015685 0.0503713116 0.985990286
vn 0.0033136243 0.414230347 0.910165966
vn -0.00268938509 -0.999996424 -0.000310596981
vn -0.186713398 -0.91559875 0.356113762
vn -0.191889152 -0.874666214 -0.445126414
vn 0.159015685 0.0503713116 0.985990286
vn -0.186713398 -0.91559875 0.356113762
vn -0.00268938509 -0.999996424 -0.000310596981
vn 0.626790404 0.156006575 0.763410509
vn 0.395257324 0.444022417 0.804124236
vn 0.159015685 0.0503713116 0.985990286
vn 0.159015685 0.0503713116 0.985990286
vn -0.00268938509 -0.999996424 -0.000310596981
vn 0.631116271 -0.752729237 -0.187325627
vn 0.626790404 0.156006575 0.763410509
vn 0.159015685 0.0503713116 0.985990286
vn 0.631116271 -0.752729237 -0.187325627
vn -0.333380878 0.936860025 -0.105596349
vn -0.0164233018 0.998184502 -0.0579462796
vn -0.297002703 0.498416692 -0.814475358
vn -0.0164233018 0.998184502 -0.0579462796
vn -0.115086801 0.432340831 -0.894335747
vn -0.297002703 0.498416692 -0.814475358
vn -0.115086801 0.432340831 -0.894335747
vn 0.365671188 0.600113451 -0.711441159
vn 0.143994242 0.206957147 -0.967695415
vn -0.0164233018 0.998184502 -0.0579462796
vn 0.365671188 0.600113451 -0.711441159
vn -0.115086801 0.432340831 -0.894335747
vn -0.175372645 0.442835301 0.879284561
vn -0.0164233018 0.998184502 -0.0579462796
vn -0.333380878 0.936860025 -0.105596349
vn -0.0164233018 0.998184502 -0.0579462796
vn -0.175372645 0.442835301 0.879284561
vn 0.0033136243 0.414230347 0.910165966
vn 0.395257324 0.444022417 0.804124236
vn 0.0033136243 0.414230347 0.910165966
vn 0.159015685 0.0503713116 0.985990286
vn -0.0164233018 0.998184502 -0.0579462796
vn 0.0033136243 0.414230347 0.910165966
vn 0.395257324 0.444022417 0.804124236
vn 0.365671188 0.600113451 -0.711441159
vn -0.0164233018 0.998184502 -0.0579462796
vn 0.395257324 0.444022417 0.804124236
vn 0.365671188 0.600113451 -0.711441159
vn 0.626790404 0.156006575 0.763410509
vn 0.464727789 -0.0107421689 -0.885388494
vn 0.395257324 0.444022417 0.804124236
vn 0.626790404 0.156006575 0.763410509
vn 0.365671188 0.600113451 -0.711441159
g interior_polygons
f 1/1/1 3/2/2 6/3/3
f 13/4/4 3/5/5 1/6/6
f 3/7/7 4/8/8 9/9/9
f 3/10/10 9/11/11 2/12/12
f 11/13/13 4/14/14 3/15/15
f 9/9/16 4/8/17 5/16/18
f 11/13/19 22/17/20 4/14/21
f 4/14/22 22/17/23 5/18/24
f 13/19/25 1/20/26 6/21/27
f 7/22/28 13/23/29 6/24/30
f 3/2/31 7/25/32 6/3/33
f 7/26/34 3/27/35 2/28/36
f 7/29/37 2/30/38 9/31/39
f 8/32/40 7/33/41 9/9/42
f 15/34/43 7/22/44 8/35/45
f 10/36/46 15/34/47 8/35/48
f 14/37/49 3/5/50 13/4/51
f 14/38/52 11/39/53 3/40/54
f 14/41/55 13/23/56 7/22/57
f 7/22/58 15/34/59 14/41/60
f 12/42/61 11/43/62 14/44/63
f 12/42/64 14/44/65 15/45/66
f 22/17/67 16/46/68 5/18/69
f 22/17/70 24/47/71 16/46/72
f 16/48/73 19/49/74 5/16/75
f 20/50/76 19/49/77 16/48/78
f 24/47/79 17/51/80 16/46/81
f 25/52/82 17/51/83 24/47/84
f 16/46/85 17/51/86 20/53/87
f 17/54/88 21/55/89 20/56/90
f 10/57/91 8/32/92 9/9/93
f 5/16/94 10/57/95 9/9/96
f 18/58/97 15/34/98 10/36/99
f 15/34/100 18/58/101 26/59/102
f 19/49/103 10/57/104 5/16/105
f 18/60/106 10/57/107 19/49/108
f 21/61/109 27/62/110 18/58/111
f 18/60/112 19/49/113 20/50/114
f 21/61/115 18/58/116 20/63/117
f 12/64/118 23/65/119 11/66/120
f 23/67/121 22/68/122 11/69/123
f 22/17/124 25/52/125 24/47/126
f 23/70/127 25/52/128 22/17/129
f 15/45/130 23/71/131 12/42/132
f 23/72/133 15/34/134 26/59/135
f 27/62/136 26/59/137 18/58/138
f 23/72/139 26/59/140 27/62/141
f 25/73/142 23/74/143 27/75/144
f 25/76/145 21/77/146 17/78/147
f 27/79/148 21/80/149 25/81/150
